<svg width="203" height="142" viewBox="0 0 203 142" fill="none" xmlns="http://www.w3.org/2000/svg">
<circle cx="62" cy="80" r="62" fill="#4EBCED"/>
<path d="M141 8.5L125 25.5" stroke="black" stroke-width="2" stroke-linecap="round" stroke-linejoin="round"/>
<path d="M125 8.5L141 25.5" stroke="black" stroke-width="2" stroke-linecap="round" stroke-linejoin="round"/>
<line x1="109.29" y1="84.399" x2="69.3607" y2="121.466" stroke="black" stroke-width="4"/>
<line x1="143.488" y1="83.6642" x2="178.488" y2="122.664" stroke="black" stroke-width="4"/>
<path d="M69 52L121.376 95.2668C124.346 97.7207 128.644 97.7086 131.6 95.238L163 69" stroke="black" stroke-width="4"/>
<path d="M152.469 48.9671C110.119 48.0908 85.2563 48.2807 73.3537 48.6312C69.1879 48.7539 66 52.1771 66 56.3446V116.997C66 121.416 69.5817 124.997 74 124.997H172.5C176.918 124.997 180.5 121.416 180.5 116.997V74.6273" stroke="black" stroke-width="4"/>
<circle cx="175.5" cy="49.5" r="22.5" fill="white"/>
<path d="M189.691 49.7188C189.645 50.8906 189.469 52.0508 189.164 53.1992C188.871 54.3359 188.42 55.373 187.811 56.3105C187.213 57.2363 186.445 57.9805 185.508 58.543C184.57 59.0938 183.439 59.3691 182.115 59.3691C181.342 59.3691 180.65 59.2344 180.041 58.9648C179.432 58.6953 178.922 58.3086 178.512 57.8047C178.102 57.2891 177.803 56.6738 177.615 55.959C177.428 55.2324 177.363 54.4238 177.422 53.5332L178.318 43.4961H181.623L180.744 53.5332C180.674 54.2012 180.686 54.7461 180.779 55.168C180.873 55.5898 181.02 55.918 181.219 56.1523C181.418 56.375 181.646 56.5332 181.904 56.627C182.174 56.7207 182.438 56.7676 182.695 56.7676C183.293 56.7676 183.832 56.5918 184.312 56.2402C184.805 55.877 185.227 55.3789 185.578 54.7461C185.93 54.1133 186.205 53.3809 186.404 52.5488C186.604 51.7051 186.721 50.7969 186.756 49.8242C186.826 48.2188 186.744 46.7363 186.51 45.377C186.287 44.0176 185.9 42.8047 185.35 41.7383C184.799 40.6719 184.084 39.7695 183.205 39.0312C182.326 38.2812 181.283 37.707 180.076 37.3086C178.869 36.9102 177.48 36.7109 175.91 36.7109C174.469 36.7109 173.139 36.9395 171.92 37.3965C170.701 37.8418 169.605 38.4805 168.633 39.3125C167.672 40.1445 166.846 41.1406 166.154 42.3008C165.463 43.4609 164.918 44.7559 164.52 46.1855C164.133 47.6152 163.904 49.1445 163.834 50.7734C163.752 52.4961 163.84 54.0664 164.098 55.4844C164.367 56.8906 164.795 58.1328 165.381 59.2109C165.979 60.2891 166.729 61.1973 167.631 61.9355C168.533 62.6738 169.582 63.2305 170.777 63.6055C171.973 63.9805 173.297 64.168 174.75 64.168C175.77 64.168 176.807 64.0508 177.861 63.8164C178.928 63.582 179.824 63.2832 180.551 62.9199L181.219 65.3984C180.398 65.9258 179.373 66.3184 178.143 66.5762C176.924 66.834 175.77 66.9629 174.68 66.9629C172.84 66.9629 171.158 66.7344 169.635 66.2773C168.123 65.8203 166.787 65.1406 165.627 64.2383C164.467 63.3359 163.5 62.2344 162.727 60.9336C161.953 59.6328 161.385 58.1328 161.021 56.4336C160.658 54.7344 160.518 52.8477 160.6 50.7734C160.682 48.8516 160.975 47.0469 161.479 45.3594C161.982 43.6602 162.68 42.1191 163.57 40.7363C164.461 39.3535 165.521 38.1641 166.752 37.168C167.994 36.1602 169.389 35.3867 170.936 34.8477C172.482 34.3086 174.164 34.0391 175.98 34.0391C177.809 34.0391 179.467 34.2793 180.955 34.7598C182.443 35.2402 183.75 35.9316 184.875 36.834C186 37.7363 186.932 38.832 187.67 40.1211C188.408 41.4102 188.947 42.8633 189.287 44.4805C189.627 46.0859 189.762 47.832 189.691 49.7188ZM171.885 51.4941C171.814 52.2676 171.814 52.9648 171.885 53.5859C171.955 54.1953 172.09 54.7051 172.289 55.1152C172.5 55.5254 172.775 55.8418 173.115 56.0645C173.455 56.2754 173.854 56.3809 174.311 56.3809C174.58 56.3809 174.873 56.3164 175.189 56.1875C175.506 56.0469 175.816 55.8242 176.121 55.5195C176.438 55.2031 176.736 54.7812 177.018 54.2539C177.311 53.7148 177.557 53.041 177.756 52.2324L179.162 53.8848C178.893 54.7871 178.553 55.5781 178.143 56.2578C177.744 56.9375 177.287 57.5059 176.771 57.9629C176.256 58.4199 175.699 58.7656 175.102 59C174.504 59.2227 173.877 59.334 173.221 59.334C172.365 59.334 171.604 59.1465 170.936 58.7715C170.268 58.3965 169.717 57.8691 169.283 57.1895C168.85 56.498 168.539 55.6719 168.352 54.7109C168.164 53.75 168.129 52.6777 168.246 51.4941C168.375 50.2871 168.604 49.1738 168.932 48.1543C169.271 47.123 169.693 46.2031 170.197 45.3945C170.701 44.5859 171.27 43.9004 171.902 43.3379C172.547 42.7637 173.238 42.3301 173.977 42.0371C174.727 41.7441 175.506 41.5977 176.314 41.5977C177.65 41.5977 178.699 41.791 179.461 42.1777C180.223 42.5527 180.943 42.9922 181.623 43.4961L179.9 45.7637C179.561 45.4473 179.115 45.1484 178.564 44.8672C178.025 44.5742 177.381 44.4277 176.631 44.4277C175.951 44.4277 175.342 44.5801 174.803 44.8848C174.275 45.1895 173.812 45.6406 173.414 46.2383C173.016 46.8359 172.688 47.5742 172.43 48.4531C172.172 49.3203 171.99 50.334 171.885 51.4941Z" fill="black"/>
</svg>
